<?xml version="1.0" standalone="no"?>
<!DOCTYPE svg PUBLIC "-//W3C//DTD SVG 20010904//EN"
 "http://www.w3.org/TR/2001/REC-SVG-20010904/DTD/svg10.dtd">
<svg version="1.0" xmlns="http://www.w3.org/2000/svg"
 width="200.000000pt" height="200.000000pt" viewBox="0 0 200.000000 200.000000"
 preserveAspectRatio="xMidYMid meet">

<g transform="translate(0.000000,200.000000) scale(0.100000,-0.100000)"
fill="#76797B" stroke="none">
<path d="M913 1870 c-55 -13 -96 -44 -121 -92 l-24 -47 27 -71 27 -71 -25 -27
c-37 -40 -48 -67 -58 -141 -18 -131 -24 -131 -29 -1 l-5 125 -325 0 -325 0 -3
-285 c-3 -326 -7 -310 85 -310 29 0 53 -1 53 -2 -3 -18 -43 -115 -65 -158 -63
-118 -77 -162 -82 -257 -7 -121 5 -143 76 -143 48 0 49 -1 65 -40 23 -57 79
-115 142 -146 49 -24 63 -26 142 -22 74 3 96 9 136 32 50 29 98 87 118 142
l12 33 271 3 c296 3 288 2 359 67 l28 26 -7 -32 c-7 -34 6 -67 37 -93 10 -8
33 -37 51 -65 46 -71 111 -108 198 -113 95 -6 129 3 183 44 58 44 90 94 106
165 11 47 10 64 -4 111 -9 31 -16 74 -16 96 0 55 -51 100 -148 131 -70 23
-101 24 -171 5 -22 -7 -21 -4 12 42 41 58 51 105 37 167 -11 51 -159 304 -208
356 -29 31 -32 38 -22 64 24 71 6 164 -38 193 -56 37 -195 7 -241 -51 -17 -23
-18 -23 -57 -6 -21 10 -47 28 -58 39 -18 21 -18 22 12 56 16 19 33 48 37 65 5
23 13 31 33 33 38 4 43 43 8 59 -14 7 -37 29 -51 50 -39 55 -109 84 -172 69z
m91 -81 c14 -11 26 -25 26 -30 0 -12 -167 -12 -175 1 -9 15 55 50 91 50 17 0
43 -9 58 -21z m29 -105 c13 -13 -28 -64 -59 -74 -37 -13 -72 -2 -103 31 -39
42 -29 49 67 49 49 0 92 -3 95 -6z m-68 -161 c22 -15 46 -33 54 -40 32 -32 93
-54 161 -57 39 -2 73 -6 76 -8 6 -7 -118 -48 -143 -48 -10 0 -49 21 -87 45
-38 25 -73 45 -77 45 -20 0 -31 -52 -38 -188 -4 -81 -5 -150 -2 -154 3 -4 60
-10 126 -14 145 -8 165 -17 165 -76 0 -41 -32 -166 -92 -362 -21 -70 -33 -95
-41 -87 -7 7 -4 36 10 98 41 173 66 314 57 323 -5 5 -94 12 -197 16 l-189 7 6
31 c3 17 12 90 20 161 27 234 29 246 50 278 22 32 59 57 86 57 9 0 33 -12 55
-27z m409 -25 c32 -46 11 -138 -31 -138 -7 0 -13 -11 -13 -24 0 -17 8 -27 29
-36 41 -16 58 -37 151 -185 101 -158 118 -203 100 -254 -10 -28 -82 -124 -120
-161 -3 -3 -34 -39 -70 -80 -36 -41 -83 -94 -106 -117 l-42 -43 -210 0 -209 0
-18 63 c-31 112 -94 198 -184 248 l-43 24 38 7 c57 10 187 9 203 -1 12 -8 13
-14 3 -36 -7 -14 -12 -50 -12 -79 0 -123 111 -193 272 -172 98 13 126 40 192
178 76 159 78 193 24 418 -41 172 -45 222 -23 264 24 44 14 79 -26 99 l-32 15
29 16 c42 22 80 20 98 -6z m-1082 -85 l3 -78 30 1 c17 1 39 2 50 3 11 0 36 0
55 -2 l35 -2 3 78 3 78 87 -3 87 -3 0 -235 0 -235 -267 -3 -268 -2 0 240 0
240 90 0 89 0 3 -77z m116 35 c3 -36 2 -38 -27 -38 -30 0 -31 2 -31 41 0 38 1
40 28 37 23 -3 27 -8 30 -40z m616 -103 c44 -29 88 -36 138 -23 26 6 51 9 54
5 8 -8 83 -334 91 -395 8 -61 -12 -133 -66 -236 -43 -83 -72 -118 -86 -104 -5
5 58 245 91 346 29 87 15 155 -37 193 -28 20 -50 24 -136 29 -56 3 -105 8
-108 12 -3 3 -3 47 1 97 7 98 13 105 58 76z m46 -409 c0 -21 -17 -109 -50
-251 -5 -22 -12 -55 -16 -73 -5 -30 -9 -33 -32 -27 -89 22 -97 168 -12 219 44
27 80 75 80 108 0 19 3 38 7 41 13 14 23 6 23 -17z m-92 -14 c8 -52 8 -52
-384 -52 -200 0 -364 3 -364 6 0 3 5 14 11 25 24 45 53 48 404 46 l330 -2 3
-23z m-723 -151 c-28 -16 -57 -36 -64 -45 -34 -40 -36 1 -3 52 12 18 23 22 66
22 l51 0 -50 -29z m250 -12 c136 -25 230 -110 274 -248 21 -65 43 -61 -324
-61 -261 0 -335 3 -336 13 -8 85 74 207 173 258 34 18 110 42 149 48 3 1 32
-4 64 -10z m1315 -108 c41 -21 59 -37 60 -52 0 -3 -44 -5 -97 -5 -72 0 -108
-4 -138 -17 -66 -29 -113 -67 -142 -113 -33 -53 -53 -57 -53 -11 1 74 66 167
145 203 66 31 160 29 225 -5z m-25 -131 c22 -25 31 -101 15 -139 -17 -43 -85
-76 -135 -67 -85 16 -134 115 -82 164 59 56 169 79 202 42z m105 -82 c0 -63
-9 -85 -55 -136 -43 -48 -76 -62 -145 -62 -85 0 -152 37 -186 103 -20 37 2 36
23 -2 48 -83 178 -111 260 -56 65 43 78 71 78 163 -1 70 1 81 12 66 7 -10 13
-44 13 -76z m-1548 -145 c34 -23 53 -28 104 -28 53 0 69 4 106 30 23 17 52 45
63 63 19 29 45 43 45 24 0 -22 -63 -93 -103 -116 -59 -35 -155 -38 -214 -7
-41 20 -113 95 -113 116 0 27 15 22 41 -15 16 -22 48 -52 71 -67z m214 95 c9
-15 -41 -55 -79 -64 -16 -3 -44 -3 -62 0 -38 7 -98 53 -89 67 8 14 221 11 230
-3z"/>
<path d="M287 654 c-15 -15 -6 -44 16 -49 12 -3 83 -4 157 -3 l135 3 0 25 0
25 -151 3 c-82 1 -153 -1 -157 -4z"/>
<path d="M298 559 c-10 -5 -18 -19 -18 -29 0 -26 38 -32 184 -28 102 3 120 6
130 21 9 15 7 21 -8 33 -24 17 -260 20 -288 3z"/>
</g>
</svg>
