<?xml version="1.0" standalone="no"?>
<svg version="1.0" xmlns="http://www.w3.org/2000/svg"
 width="104" height="104" viewBox="0 0 1920 1920"
 preserveAspectRatio="xMidYMid meet">

<g transform="translate(0.000000,1920) scale(0.1,-0.1)"
fill="#76797B" stroke="none">
<path d="M9245 13934 c-136 -29 -278 -116 -373 -228 -77 -91 -142 -247 -142
-343 0 -32 7 -50 29 -75 21 -25 33 -54 45 -117 21 -102 59 -189 114 -258 23
-29 42 -56 42 -60 0 -4 -22 -21 -48 -36 -124 -74 -233 -219 -276 -368 -9 -29
-43 -272 -76 -538 -33 -266 -62 -486 -65 -489 -3 -3 -5 266 -5 597 0 519 -2
606 -15 631 -33 64 43 60 -1260 60 -1101 0 -1189 -1 -1216 -17 -62 -37 -59 22
-59 -1140 0 -820 3 -1063 13 -1082 6 -13 25 -34 40 -45 27 -20 43 -21 278 -24
137 -2 249 -5 249 -9 0 -3 -13 -22 -29 -42 -59 -75 -102 -180 -121 -296 -6
-38 -31 -91 -86 -186 -132 -227 -262 -519 -319 -714 -49 -170 -66 -275 -72
-436 -6 -167 6 -263 48 -375 32 -85 41 -88 263 -94 l191 -5 31 -85 c48 -131
71 -178 129 -265 171 -258 439 -433 745 -486 114 -19 307 -15 420 9 391 84
697 350 825 718 19 53 38 101 42 105 5 5 463 10 1018 11 l1010 3 73 27 c136
49 203 100 346 263 80 91 105 112 93 80 -17 -42 -29 -167 -25 -260 3 -87 7
-106 30 -146 35 -59 84 -102 142 -124 25 -10 46 -22 46 -28 0 -21 93 -194 133
-247 266 -356 704 -506 1123 -385 286 83 517 281 648 556 74 154 91 234 91
434 0 190 -12 258 -71 399 l-33 79 20 61 c40 118 3 227 -109 323 -234 198
-511 303 -801 303 -123 0 -259 -20 -365 -54 -42 -13 -76 -21 -76 -17 0 3 45
57 99 119 106 123 150 189 187 281 74 184 70 421 -11 598 -35 77 -631 1052
-695 1139 -36 48 -128 141 -193 196 l-29 24 36 64 c51 95 69 181 70 335 0 105
-4 145 -23 210 -27 97 -66 170 -106 200 -54 41 -168 93 -233 106 -137 26 -347
-13 -527 -100 -126 -61 -212 -124 -272 -201 -25 -33 -47 -60 -48 -60 -12 0
-126 45 -151 59 -34 20 -300 236 -309 251 -3 5 13 21 36 36 140 88 247 254
267 413 l7 56 85 5 c95 6 123 17 145 60 19 36 19 73 1 109 -23 44 -45 56 -115
61 l-66 5 -42 85 c-50 101 -107 172 -188 236 -155 122 -364 169 -560 128z
m330 -268 c51 -25 89 -54 129 -97 31 -33 56 -67 56 -75 0 -12 -54 -14 -369
-14 -204 0 -372 4 -375 8 -7 11 55 87 101 124 47 37 121 75 170 88 21 5 78 8
126 6 77 -3 97 -8 162 -40z m167 -451 c-11 -96 -110 -223 -209 -267 -73 -33
-192 -36 -265 -8 -71 26 -160 105 -193 169 -27 54 -47 120 -39 133 3 4 164 7
357 6 l352 -3 -3 -30z m-363 -566 c30 -12 129 -87 243 -180 145 -120 215 -170
283 -204 138 -70 195 -78 473 -70 206 7 232 6 232 -8 0 -9 -8 -18 -17 -21
-544 -161 -552 -163 -642 -131 -23 8 -144 81 -269 162 -210 137 -230 148 -274
148 -38 0 -52 -5 -77 -29 -16 -16 -32 -41 -35 -55 -8 -34 -76 -1059 -76 -1133
0 -31 5 -69 12 -83 24 -54 44 -57 407 -66 503 -13 532 -14 575 -33 64 -27 122
-82 152 -143 44 -90 40 -149 -28 -378 -31 -104 -96 -325 -144 -490 -47 -165
-132 -457 -188 -650 l-101 -350 -37 -3 c-26 -2 -38 1 -38 10 0 7 22 121 50
253 81 389 217 1041 245 1170 29 137 31 192 9 223 -37 53 -17 52 -777 52 -387
0 -706 2 -709 5 -4 4 11 131 152 1259 55 444 61 483 89 541 52 113 139 185
262 220 69 19 162 13 228 -16z m1628 -118 c60 -29 63 -31 80 -88 26 -83 24
-279 -3 -347 -17 -44 -25 -52 -79 -78 -33 -16 -71 -34 -84 -41 -39 -19 -66
-64 -65 -106 2 -49 26 -85 72 -106 154 -71 250 -138 319 -224 24 -31 162 -247
305 -481 143 -234 287 -470 320 -524 34 -55 72 -133 85 -173 46 -145 22 -322
-60 -444 -18 -26 -153 -188 -302 -360 -148 -172 -385 -446 -525 -608 -140
-163 -276 -318 -303 -344 -59 -59 -152 -104 -239 -118 -37 -6 -351 -8 -778 -7
l-715 3 -11 83 c-38 262 -109 449 -255 668 -163 242 -418 449 -692 560 -43 17
-81 34 -84 38 -4 3 244 6 550 6 307 0 557 -3 557 -7 0 -5 -10 -24 -22 -43 -97
-160 -134 -396 -88 -574 32 -125 81 -208 184 -311 102 -102 182 -148 322 -187
72 -20 102 -22 339 -22 277 -1 315 4 440 57 111 46 229 140 301 239 45 60 352
695 392 810 58 163 81 351 63 511 -6 54 -38 216 -70 360 -33 144 -103 457
-157 695 l-97 432 22 46 c18 35 22 55 17 85 -6 35 -3 43 27 73 111 110 101
290 -21 383 -53 40 -98 53 -185 53 -38 0 -66 4 -63 9 9 14 150 70 229 91 112
29 199 26 274 -9z m-4137 -341 c0 -309 3 -325 60 -355 51 -27 88 -19 186 40
51 30 95 55 99 55 4 0 48 -25 99 -55 94 -56 129 -65 180 -45 14 5 35 24 46 42
19 31 20 51 20 316 l0 282 345 0 345 0 0 -915 0 -915 -1035 0 -1035 0 0 915 0
915 345 0 345 0 0 -280z m450 125 c0 -85 -2 -155 -5 -155 -4 0 -20 7 -37 16
-17 9 -46 16 -65 16 -18 0 -44 -7 -58 -16 -13 -9 -29 -16 -35 -16 -6 0 -10 55
-10 155 l0 155 105 0 105 0 0 -155z m2327 -380 c63 -42 136 -87 162 -100 138
-69 278 -71 485 -7 91 29 135 38 147 32 10 -6 19 -28 24 -57 6 -43 53 -258
120 -543 13 -58 65 -289 115 -515 103 -464 113 -541 86 -694 -25 -142 -51
-207 -224 -566 -139 -289 -166 -338 -214 -390 -55 -60 -163 -134 -175 -121 -4
3 21 102 55 219 118 409 294 1014 349 1202 63 217 72 309 39 420 -43 144 -153
277 -280 336 -98 46 -185 56 -546 63 -178 4 -325 8 -327 9 -1 2 9 165 22 363
14 197 25 374 25 392 0 17 5 32 10 32 6 0 63 -34 127 -75z m240 -1549 c-3 -8
-47 -212 -97 -453 -50 -241 -117 -561 -148 -711 l-57 -274 -30 6 c-115 23
-254 134 -307 245 -28 58 -33 79 -36 167 -3 75 0 116 13 160 44 155 148 284
280 349 184 91 266 220 269 422 l1 103 59 0 c47 0 57 -3 53 -14z m-366 -18
c18 -20 20 -32 16 -84 -6 -77 -36 -134 -91 -171 l-41 -28 -1392 -3 c-943 -1
-1393 1 -1393 8 0 27 49 108 96 159 58 63 149 115 224 130 25 5 611 9 1302 10
l1257 1 22 -22z m-2536 -538 c-11 -5 -54 -23 -95 -41 -186 -78 -356 -194 -504
-343 -60 -60 -86 -81 -81 -65 11 35 134 281 189 377 l48 82 231 -1 c143 0 224
-4 212 -9z m728 -175 c268 -47 504 -170 697 -364 116 -117 185 -210 253 -346
67 -133 127 -337 127 -431 l0 -34 -1300 0 -1300 0 0 34 c0 50 26 166 60 267
154 461 575 813 1055 882 77 11 328 6 408 -8z m4852 -334 c107 -28 243 -95
340 -168 92 -68 108 -85 103 -109 -7 -37 -30 -39 -220 -21 -310 30 -449 21
-642 -40 -102 -32 -252 -108 -336 -172 -103 -78 -230 -216 -307 -336 -82 -127
-111 -165 -124 -165 -5 0 -18 9 -30 21 -18 18 -19 28 -14 92 22 239 98 427
237 589 143 165 360 289 575 328 87 16 329 5 418 -19z m74 -544 c13 -12 41
-49 63 -81 212 -325 -28 -761 -416 -758 -237 2 -433 161 -482 391 -24 117 -21
131 42 196 71 72 161 138 246 181 183 92 481 131 547 71z m403 -92 c90 -270
38 -545 -146 -767 -197 -237 -521 -339 -817 -257 -84 23 -193 76 -260 125 -71
52 -173 165 -217 241 -55 93 -57 105 -28 132 l24 22 26 -57 c84 -184 249 -328
451 -396 61 -20 89 -23 215 -23 129 1 153 4 223 27 148 50 277 144 363 264 92
128 132 241 141 390 6 114 -6 203 -43 303 -13 35 -24 68 -24 73 0 5 15 8 33 6
31 -3 33 -7 59 -83z m-6257 -521 c141 -277 397 -435 705 -436 308 0 560 155
705 435 l42 82 44 0 c53 0 54 -6 3 -114 -174 -372 -605 -574 -1005 -472 -201
51 -397 187 -510 353 -49 71 -120 218 -113 230 3 5 24 8 47 6 41 -3 42 -4 82
-84z m1175 72 c0 -27 -102 -138 -162 -177 -198 -127 -427 -126 -621 4 -60 41
-157 148 -157 174 0 10 91 13 470 13 404 0 470 -2 470 -14z"/>
<path d="M6894 9270 c-39 -15 -64 -59 -64 -109 0 -55 20 -88 66 -107 52 -22
1052 -21 1098 1 60 29 83 103 51 165 -32 61 -23 60 -602 59 -290 0 -538 -4
-549 -9z"/>
<path d="M6893 8895 c-86 -37 -87 -168 -2 -212 18 -10 153 -13 552 -13 579 0
571 -1 602 60 32 62 9 136 -51 165 -45 21 -1051 22 -1101 0z"/>
</g>
</svg>
